<svg viewBox="0 0 24 24" xmlns="http://www.w3.org/2000/svg" xmlns:xlink="http://www.w3.org/1999/xlink" version="1.1" >
            <path
                fill="#FFF"
                d="M12 0C5.37 0 0 5.276 0 11.79c0 5.218 3.435 9.625 8.205 11.187.6.104.825-.25.825-.56 0-.28-.015-1.208-.015-2.196C6 20.767 5.22 19.5 4.98 18.836c-.135-.34-.72-1.385-1.23-1.666-.42-.22-1.02-.766-.015-.78.945-.015 1.62.854 1.845 1.208 1.08 1.783 2.805 1.282 3.495.973.105-.767.42-1.283.765-1.577-2.67-.295-5.46-1.312-5.46-5.822 0-1.282.465-2.344 1.23-3.169-.12-.295-.54-1.503.12-3.125 0 0 1.005-.309 3.3 1.209a11.32 11.32 0 0 1 3-.398c1.02 0 2.04.133 3 .398 2.295-1.533 3.3-1.209 3.3-1.209.66 1.622.24 2.83.12 3.125.765.825 1.23 1.872 1.23 3.169 0 4.525-2.805 5.527-5.475 5.822.435.368.81 1.076.81 2.18 0 1.578-.015 2.845-.015 3.243 0 .31.225.678.825.56 4.885-1.62 8.174-6.12 8.175-11.186C24 5.276 18.63 0 12 0z"
            ></path>
        </svg>
