<svg xmlns="http://www.w3.org/2000/svg" xmlns:xlink="http://www.w3.org/1999/xlink" version="1.1" viewBox="0 0 38 38"><g fill="none" fill-rule="evenodd"> <rect fill="#FFF" width="38" height="38" rx="3"></rect><path d="M27.64 19.205c0-.639-.057-1.252-.164-1.841H19v3.481h4.844a4.14 4.14 0 0 1-1.796 2.716v2.259h2.908c1.702-1.567 2.684-3.875 2.684-6.615z" fill="#4285F4"></path><path d="M19 28c2.43 0 4.467-.806 5.956-2.18l-2.908-2.259c-.806.54-1.837.86-3.048.86-2.344 0-4.328-1.584-5.036-3.711h-3.007v2.332A8.997 8.997 0 0 0 19 28z" fill="#34A853"></path><path d="M13.964 20.71a5.41 5.41 0 0 1-.282-1.71c0-.593.102-1.17.282-1.71v-2.332h-3.007A8.996 8.996 0 0 0 10 19c0 1.452.348 2.827.957 4.042l3.007-2.332z" fill="#FBBC05"></path><path d="M19 13.58c1.321 0 2.508.454 3.44 1.345l2.582-2.58C23.463 10.891 21.426 10 19 10a8.997 8.997 0 0 0-8.043 4.958l3.007 2.332c.708-2.127 2.692-3.71 5.036-3.71z" fill="#EA4335"></path><path d="M10 10h18v18H10z"></path></g></svg>