<svg xmlns="http://www.w3.org/2000/svg" xmlns:xlink="http://www.w3.org/1999/xlink" version="1.1" viewBox="0 0 56 56"><title>Instabug-Icon</title><desc>Created with Sketch.</desc><defs><linearGradient id="linearGradient-1" x1="73.863%" x2="-30.885%" y1="34.588%" y2="101.125%"><stop offset="0%" stop-color="#FFF" stop-opacity="0"/><stop offset="100%" stop-color="#00287A"/></linearGradient><linearGradient id="linearGradient-2" x1="93.599%" x2="-18.43%" y1="-20.094%" y2="160.022%"><stop offset="0%" stop-color="#FFF" stop-opacity="0"/><stop offset="100%" stop-color="#00287A"/></linearGradient><linearGradient id="linearGradient-3" x1="89.073%" x2="-14.982%" y1="-12.122%" y2="153.302%"><stop offset="0%" stop-color="#FFF" stop-opacity="0"/><stop offset="100%" stop-color="#00287A"/></linearGradient><linearGradient id="linearGradient-4" x1="93.588%" x2="-18.428%" y1="-20.062%" y2="159.986%"><stop offset="0%" stop-color="#FFF" stop-opacity="0"/><stop offset="100%" stop-color="#00287A"/></linearGradient><linearGradient id="linearGradient-5" x1="89.073%" x2="-14.982%" y1="-12.108%" y2="153.294%"><stop offset="0%" stop-color="#FFF" stop-opacity="0"/><stop offset="100%" stop-color="#00287A"/></linearGradient><linearGradient id="linearGradient-6" x1="64.5%" x2="-9.113%" y1="41.641%" y2="81.735%"><stop offset="0%" stop-color="#FFF" stop-opacity="0"/><stop offset="100%" stop-color="#00287A"/></linearGradient><linearGradient id="linearGradient-7" x1="-17.956%" x2="84.44%" y1="50.016%" y2="50.016%"><stop offset="0%" stop-color="#FFF" stop-opacity="0"/><stop offset="100%" stop-color="#00287A"/></linearGradient></defs><g id="Instabug-Icon" fill="none" fill-rule="evenodd" stroke="none" stroke-width="1"><g id="Group" fill-rule="nonzero" transform="translate(4.666667, 13.222222)"><path id="Path" fill="#00287A" d="M29.6031258,12.2314248 L15.2346765,30.4346046 L29.5584493,30.4346046 C32.0089309,30.4346046 34.3244917,29.3124828 35.8429395,27.3891585 L47.8063056,12.2314248 L29.6031258,12.2314248 Z"/><path id="Path" fill="url(#linearGradient-1)" d="M29.6031258,12.2314248 L15.2346765,30.4346046 L29.5584493,30.4346046 C32.0089309,30.4346046 34.3244917,29.3124828 35.8429395,27.3891585 L47.8063056,12.2314248 L29.6031258,12.2314248 Z" style="mix-blend-mode:multiply"/><polygon id="Path" fill="#64B5F9" points="8.97 30.449 23.341 12.244 17.156 12.244 2.777 30.449"/><polygon id="Path" fill="url(#linearGradient-2)" points="8.968 30.449 23.336 12.244 17.153 12.244 2.785 30.449" opacity=".2" style="mix-blend-mode:multiply"/><polygon id="Path" fill="#0098FF" points="15.227 30.449 29.596 12.244 23.338 12.244 8.97 30.449"/><polygon id="Path" fill="url(#linearGradient-3)" points="15.227 30.449 29.596 12.244 23.338 12.244 8.97 30.449" opacity=".5" style="mix-blend-mode:multiply"/><polygon id="Path" fill="#64B5F9" points="6.193 18.203 20.561 0 14.378 0 0 18.203"/><polygon id="Path" fill="url(#linearGradient-4)" points="6.193 18.203 20.561 0 14.376 0 .007 18.203" opacity=".2" style="mix-blend-mode:multiply"/><polygon id="Path" fill="#0098FF" points="12.45 18.203 26.818 0 20.561 0 6.193 18.203"/><polygon id="Path" fill="url(#linearGradient-5)" points="12.45 18.203 26.818 0 20.561 0 6.193 18.203" opacity=".5" style="mix-blend-mode:multiply"/><path id="Path" fill="#0E5FC1" d="M32.7627451,15.5201095 L45.0214722,7.10542736e-15 L26.8182925,7.10542736e-15 L12.4498431,18.2056618 L27.2352729,18.2056618 C29.3916217,18.203387 31.4282246,17.2138924 32.7627451,15.5201095 Z"/><path id="Path" fill="url(#linearGradient-6)" d="M45.0239542,-1.77635684e-15 L35.3688725,12.2314248 L32.7627451,15.5201095 C31.4248579,17.214812 29.3845017,18.2034382 27.2253448,18.2031798 L12.4498431,18.2031798 L26.8182925,-1.77635684e-15 L45.0239542,-1.77635684e-15 Z" opacity=".3" style="mix-blend-mode:multiply"/><path id="Path" fill="url(#linearGradient-7)" d="M37.3222271,12.2388709 L33.5073529,17.1706569 C32.1709446,18.8933571 30.1130165,19.901247 27.9327222,19.9008857 L11.1145131,19.9008857 L12.4498431,18.2056618 L27.2352729,18.2056618 C29.3901026,18.2040847 31.426023,17.2176643 32.7627451,15.5275556 L35.3688725,12.2388709 L37.3222271,12.2388709 Z" opacity=".8" style="mix-blend-mode:multiply"/></g></g></svg>