<?xml version="1.0" encoding="UTF-8"?>
<svg width="56px" height="56px" viewBox="0 0 56 56" version="1.1" xmlns="http://www.w3.org/2000/svg" xmlns:xlink="http://www.w3.org/1999/xlink">
    <!-- Generator: Sketch 57.1 (83088) - https://sketch.com -->
    <title>Instabug-Icon</title>
    <desc>Created with Sketch.</desc>
    <defs>
        <linearGradient x1="73.8626838%" y1="34.5878499%" x2="-30.8847062%" y2="101.125411%" id="linearGradient-1">
            <stop stop-color="#FFFFFF" stop-opacity="0" offset="0%"/>
            <stop stop-color="#00287A" offset="100%"/>
        </linearGradient>
        <linearGradient x1="93.5990338%" y1="-20.0938944%" x2="-18.4299517%" y2="160.022218%" id="linearGradient-2">
            <stop stop-color="#FFFFFF" stop-opacity="0" offset="0%"/>
            <stop stop-color="#00287A" offset="100%"/>
        </linearGradient>
        <linearGradient x1="89.0734055%" y1="-12.1215903%" x2="-14.9819495%" y2="153.302304%" id="linearGradient-3">
            <stop stop-color="#FFFFFF" stop-opacity="0" offset="0%"/>
            <stop stop-color="#00287A" offset="100%"/>
        </linearGradient>
        <linearGradient x1="93.587731%" y1="-20.0620654%" x2="-18.4277261%" y2="159.985999%" id="linearGradient-4">
            <stop stop-color="#FFFFFF" stop-opacity="0" offset="0%"/>
            <stop stop-color="#00287A" offset="100%"/>
        </linearGradient>
        <linearGradient x1="89.0734055%" y1="-12.1078109%" x2="-14.9819495%" y2="153.293531%" id="linearGradient-5">
            <stop stop-color="#FFFFFF" stop-opacity="0" offset="0%"/>
            <stop stop-color="#00287A" offset="100%"/>
        </linearGradient>
        <linearGradient x1="64.5001524%" y1="41.6414919%" x2="-9.11307528%" y2="81.735079%" id="linearGradient-6">
            <stop stop-color="#FFFFFF" stop-opacity="0" offset="0%"/>
            <stop stop-color="#00287A" offset="100%"/>
        </linearGradient>
        <linearGradient x1="-17.9562459%" y1="50.0161963%" x2="84.4398144%" y2="50.0161963%" id="linearGradient-7">
            <stop stop-color="#FFFFFF" stop-opacity="0" offset="0%"/>
            <stop stop-color="#00287A" offset="100%"/>
        </linearGradient>
    </defs>
    <g id="Instabug-Icon" stroke="none" stroke-width="1" fill="none" fill-rule="evenodd">
        <g id="Group" transform="translate(4.666667, 13.222222)" fill-rule="nonzero">
            <path d="M29.6031258,12.2314248 L15.2346765,30.4346046 L29.5584493,30.4346046 C32.0089309,30.4346046 34.3244917,29.3124828 35.8429395,27.3891585 L47.8063056,12.2314248 L29.6031258,12.2314248 Z" id="Path" fill="#00287A"/>
            <path d="M29.6031258,12.2314248 L15.2346765,30.4346046 L29.5584493,30.4346046 C32.0089309,30.4346046 34.3244917,29.3124828 35.8429395,27.3891585 L47.8063056,12.2314248 L29.6031258,12.2314248 Z" id="Path" fill="url(#linearGradient-1)" style="mix-blend-mode: multiply;"/>
            <polygon id="Path" fill="#64B5F9" points="8.97004248 30.4494967 23.3409739 12.243835 17.1557647 12.243835 2.77738725 30.4494967"/>
            <polygon id="Path" fill="url(#linearGradient-2)" opacity="0.2" style="mix-blend-mode: multiply;" points="8.96756046 30.4494967 23.3360098 12.243835 17.1532827 12.243835 2.78483333 30.4494967"/>
            <polygon id="Path" fill="#0098FF" points="15.2272304 30.4494967 29.5956797 12.243835 23.3384918 12.243835 8.97004248 30.4494967"/>
            <polygon id="Path" fill="url(#linearGradient-3)" opacity="0.5" style="mix-blend-mode: multiply;" points="15.2272304 30.4494967 29.5956797 12.243835 23.3384918 12.243835 8.97004248 30.4494967"/>
            <polygon id="Path" fill="#64B5F9" points="6.19265523 18.2031797 20.5611046 -8.8817842e-15 14.3783775 -8.8817842e-15 -4.26325641e-14 18.2031797"/>
            <polygon id="Path" fill="url(#linearGradient-4)" opacity="0.2" style="mix-blend-mode: multiply;" points="6.19265523 18.2031797 20.5611046 -8.8817842e-15 14.3758954 -8.8817842e-15 0.00744607843 18.2031797"/>
            <polygon id="Path" fill="#0098FF" points="12.4498431 18.2031797 26.8182925 -8.8817842e-15 20.5611046 -8.8817842e-15 6.19265523 18.2031797"/>
            <polygon id="Path" fill="url(#linearGradient-5)" opacity="0.5" style="mix-blend-mode: multiply;" points="12.4498431 18.2031797 26.8182925 -8.8817842e-15 20.5611046 -8.8817842e-15 6.19265523 18.2031797"/>
            <path d="M32.7627451,15.5201095 L45.0214722,7.10542736e-15 L26.8182925,7.10542736e-15 L12.4498431,18.2056618 L27.2352729,18.2056618 C29.3916217,18.203387 31.4282246,17.2138924 32.7627451,15.5201095 Z" id="Path" fill="#0E5FC1"/>
            <path d="M45.0239542,-1.77635684e-15 L35.3688725,12.2314248 L32.7627451,15.5201095 C31.4248579,17.214812 29.3845017,18.2034382 27.2253448,18.2031798 L12.4498431,18.2031798 L26.8182925,-1.77635684e-15 L45.0239542,-1.77635684e-15 Z" id="Path" fill="url(#linearGradient-6)" opacity="0.3" style="mix-blend-mode: multiply;"/>
            <path d="M37.3222271,12.2388709 L33.5073529,17.1706569 C32.1709446,18.8933571 30.1130165,19.901247 27.9327222,19.9008857 L11.1145131,19.9008857 L12.4498431,18.2056618 L27.2352729,18.2056618 C29.3901026,18.2040847 31.426023,17.2176643 32.7627451,15.5275556 L35.3688725,12.2388709 L37.3222271,12.2388709 Z" id="Path" fill="url(#linearGradient-7)" opacity="0.8" style="mix-blend-mode: multiply;"/>
        </g>
    </g>
</svg>