        <svg
            xmlns="http://www.w3.org/2000/svg"
            xmlns:xlink="http://www.w3.org/1999/xlink"
            version="1.1"
            viewBox="0 0 66 17"
            width="78"
            id="shape-asana-full-logo"
        >
            <path fill="#999999"
                d="M13.296 9.43c-1.965 0-3.558 1.558-3.558 3.479s1.593 3.479 3.558 3.479c1.965 0 3.558-1.558 3.558-3.48 0-1.92-1.593-3.478-3.558-3.478zM7.116 12.91c0-1.922-1.593-3.48-3.558-3.48-1.966 0-3.559 1.558-3.559 3.48 0 1.92 1.593 3.478 3.559 3.478 1.965 0 3.558-1.557 3.558-3.479zM7.87.865c1.921 0 3.48 1.593 3.48 3.558 0 1.966-1.559 3.559-3.48 3.559-1.92 0-3.479-1.593-3.479-3.559 0-1.965 1.558-3.558 3.48-3.558zM26.785 11.219c-1.426 0-2.582-1.143-2.582-2.552 0-1.41 1.156-2.552 2.583-2.552 1.426 0 2.582 1.142 2.582 2.552 0 1.41-1.156 2.552-2.582 2.552zm2.59.323c0 .234.415.89.923.89h.328c.128 0 .232-.1.232-.224V5.225h-.001a.228.228 0 0 0-.23-.212h-1.02a.229.229 0 0 0-.23.212h-.001v.567c-.624-.743-1.608-1.051-2.594-1.051-2.243 0-4.06 1.757-4.06 3.926 0 2.168 1.817 3.926 4.06 3.926.986 0 2.061-.37 2.594-1.052v.002zm3.916-1c.68.455 1.422.677 2.135.677.68 0 1.382-.341 1.382-.934 0-.791-1.53-.914-2.492-1.23-.962-.316-1.79-.97-1.79-2.027 0-1.62 1.492-2.288 2.884-2.288.882 0 1.792.282 2.382.685.204.148.08.32.08.32l-.564.777c-.063.088-.194.158-.332.069-.38-.243-.803-.477-1.566-.477-.945 0-1.361.38-1.361.85 0 .564.665.741 1.444.933 1.357.354 2.838.78 2.838 2.388 0 1.427-1.38 2.308-2.905 2.308-1.155 0-2.14-.319-2.964-.904-.172-.166-.052-.32-.052-.32l.56-.775c.115-.145.258-.094.321-.052zm12.678 1c0 .234.414.89.921.89h.33c.127 0 .23-.1.23-.224V5.225a.229.229 0 0 0-.23-.212H46.2a.229.229 0 0 0-.23.212h-.001v.567c-.624-.743-1.608-1.051-2.594-1.051-2.243 0-4.061 1.757-4.061 3.926 0 2.168 1.818 3.926 4.06 3.926.987 0 2.062-.37 2.595-1.052v.001zm-2.59-.323c-1.427 0-2.583-1.143-2.583-2.552 0-1.41 1.156-2.552 2.582-2.552s2.583 1.142 2.583 2.552c0 1.41-1.157 2.552-2.583 2.552zm13.197.563V8.17c0-2.037-1.33-3.412-3.45-3.412-1.011 0-1.839.566-2.132 1.052v-.007l-.002.006c0-.492-.413-.778-.921-.778h-.327a.229.229 0 0 0-.232.224v6.984h.001a.228.228 0 0 0 .23.212h1.02c.015 0 .03-.002.045-.005l.02-.005.022-.007.026-.013.012-.007a.252.252 0 0 0 .029-.022l.005-.004a.219.219 0 0 0 .07-.15h.002V8.114c0-1.094.917-1.982 2.05-1.982 1.13 0 2.048.888 2.048 1.982v3.448l.001-.001v.678h.002a.228.228 0 0 0 .23.212h1.019c.016 0 .03-.002.046-.005.006 0 .011-.003.017-.005l.025-.007.024-.013.014-.007a.268.268 0 0 0 .027-.02l.007-.006a.218.218 0 0 0 .07-.149h.002v-.456zm7.942-.24c0 .234.414.89.921.89h.33c.127 0 .231-.1.231-.224V5.225h-.001a.229.229 0 0 0-.23-.212H64.75a.228.228 0 0 0-.23.212h-.002v.567c-.624-.743-1.608-1.051-2.595-1.051-2.242 0-4.06 1.757-4.06 3.926 0 2.168 1.818 3.926 4.06 3.926.987 0 2.062-.37 2.595-1.052v.001zm-2.59-.323c-1.427 0-2.583-1.143-2.583-2.552 0-1.41 1.156-2.552 2.583-2.552 1.425 0 2.581 1.142 2.581 2.552 0 1.41-1.156 2.552-2.581 2.552z"
            ></path>
        </svg>