<svg
            xmlns="http://www.w3.org/2000/svg"
            xmlns:xlink="http://www.w3.org/1999/xlink"
            version="1.1"
            viewBox="0 0 79 14"
            width="80"
            id="shape-buzzfeed-full-logo"
        >
            <path fill="#999999"
                d="M29.969 6.062v-2.01c.001-.072.013-.143.021-.236h7.993c0 .604.007 1.199-.007 1.793-.002.09-.09.184-.153.264-1.376 1.748-2.755 3.494-4.132 5.241-.068.086-.13.178-.235.326h.401c1.301 0 2.602.006 3.904-.005.241-.002.332.058.324.316-.017.648-.005 1.298-.005 1.966h-8.103c0-.647-.005-1.284.006-1.92.002-.08.085-.164.142-.237l3.968-5.05c.101-.128.2-.259.346-.448h-4.47zm-4.353-.003h-4.435V3.811H29.2c0 .425-.021.85.007 1.274.025.39-.094.691-.34.998-1.333 1.66-2.646 3.338-3.965 5.01-.071.09-.138.182-.249.327h4.6v2.291h-8.095c0-.625-.01-1.251.009-1.876.003-.107.11-.219.186-.316 1.354-1.725 2.71-3.448 4.065-5.172.056-.072.105-.15.2-.288zm46.436 5.55h1.441c1.69-.001 2.755-.954 2.944-2.637.136-1.209-.517-2.41-1.557-2.838-.916-.375-1.874-.176-2.828-.229v5.704zm-2.496 2.102v-.36-9.197c0-.403 0-.406.415-.403 1.437.014 2.88-.048 4.308.063 2.037.158 3.63 1.076 4.385 3.087.767 2.045.183 4.378-1.375 5.656-.918.753-1.999 1.124-3.162 1.165-1.477.054-2.958.017-4.437.018-.03 0-.06-.012-.134-.029zm-29.913.005V.017h9.521v1.33c0 .293-.02.59.006.881.025.29-.092.347-.359.346-1.879-.011-3.757-.006-5.636-.006h-.594v2.885h.354c1.417 0 2.834.008 4.251-.007.286-.003.353.088.347.359-.018.721-.006 1.444-.006 2.202h-4.968v5.71h-2.916zM14.927 14c-.315-.065-.633-.12-.945-.195-1.937-.462-3.08-1.913-3.082-3.907-.002-1.91 0-3.822 0-5.734v-.342h2.617v.365c0 1.806.005 3.612-.002 5.419-.004.82.246 1.513 1.022 1.87.841.386 1.702.372 2.48-.183.57-.405.73-1.027.732-1.695.004-1.796.001-3.591.001-5.387v-.395h2.59V9.84c-.002 2.281-1.42 3.85-3.695 4.088-.112.012-.222.047-.333.07L14.927 14zm46.618-6.212h4.821c.062-1.196-1.085-2.146-2.526-2.118-1.28.025-2.387 1.038-2.295 2.118zM63.675 14c-.429-.086-.863-.147-1.283-.263-2.004-.553-3.386-2.249-3.568-4.322-.172-1.955.394-3.612 1.963-4.845 2.376-1.87 7.047-1.445 7.975 2.977.066.317.106.642.126.965.02.344.004.69.004 1.087h-7.364c.064.552.279.997.634 1.364.815.842 1.831 1 2.93.807.7-.123 1.346-.389 1.927-.887l1.186 1.739c-.309.206-.589.425-.896.593-.763.418-1.59.639-2.455.72-.1.01-.198.043-.298.065h-.882zM55.72 7.79c.052-1.234-1.123-2.176-2.61-2.118-1.238.05-2.338 1.098-2.206 2.118h4.816zM53.03 14c-.347-.065-.699-.114-1.042-.197-2.689-.645-4.06-2.96-3.824-5.52.197-2.143 1.276-3.71 3.332-4.435 2.87-1.012 6.2.355 6.69 4.177.065.505.062 1.019.093 1.574h-7.413c.172.941.646 1.602 1.474 1.953 1.344.57 2.604.286 3.792-.479.07-.045.134-.099.203-.147.006-.005.02 0 .067 0 .364.534.739 1.087 1.16 1.708-.382.239-.735.498-1.12.691-.71.357-1.471.546-2.263.612-.09.007-.178.041-.267.063h-.882zM2.936 5.453c.86 0 1.675.001 2.49-.002.158 0 .318.001.471-.03.576-.115 1.01-.411 1.16-1.012.241-.958-.369-1.785-1.36-1.834-.46-.023-.922-.006-1.383-.007H2.957c-.01.1-.02.16-.02.22v2.665zm.02 5.672c.039.013.077.037.115.037.921.002 1.845.035 2.764-.009.952-.045 1.518-.63 1.543-1.493.025-.866-.498-1.491-1.43-1.603-.588-.07-1.19-.038-1.786-.047-.395-.005-.79 0-1.205 0v3.115zM0 .008c2.224.003 4.449-.03 6.672.02 1.713.04 3.056 1.205 3.345 2.796.327 1.8-.607 3.338-2.047 3.75-.037.011-.067.045-.116.08 1.373.393 2.193 1.302 2.424 2.665.38 2.248-.859 4.095-3.2 4.357-.52.058-1.046.056-1.57.059-1.836.01-3.672.01-5.508.013V.008z"
            ></path>
        </svg>