        <svg
            xmlns="http://www.w3.org/2000/svg"
            xmlns:xlink="http://www.w3.org/1999/xlink"
            version="1.1"
            id="shape-house-party-logo"
            width="110"
            height="20"
        >
            <path
                fill-rule="evenodd" fill="#999999"
                d="M68.37 4.789c.892-.906 1.93-1.105 3.03-.791 1.481.424 2.292 1.555 2.565 3.05.23 1.26.132 2.503-.546 3.664-.949 1.62-3.078 2.33-4.685 1.17-.104-.075-.203-.247-.345-.172-.161.084-.092.28-.094.428-.007.641 0 1.283-.005 1.924-.004.536-.074.592-.58.576-.576-.02-1.151-.043-1.726.034-.556.075-.712-.071-.713-.66-.003-2.956.006-5.911-.005-8.866-.004-1.044-.142-1.09 1.027-1.075.41.005.819.007 1.228-.003.683-.016.683-.02.85.72zm27.316-.748h.084c.695.035 1.389-.019 2.085.014.45.022.643.2.767.618.335 1.134.7 2.26 1.057 3.387.032.1.087.193.181.398l.778-2.536c.15-.49.304-.98.455-1.47.073-.233.215-.374.462-.374.743-.002 1.486-.008 2.23-.001.435.004.399.272.285.579-.474 1.284-.944 2.57-1.42 3.854-.51 1.371-1.024 2.74-1.534 4.11-.575 1.548-1.74 2.235-3.334 2.027a5.647 5.647 0 0 1-1.648-.492c-.332-.152-.42-.383-.275-.716.192-.441.392-.88.583-1.322.126-.29.311-.358.582-.2.28.163.576.282.91.238.284-.037.413-.18.296-.481-.59-1.523-1.18-3.046-1.772-4.568-.338-.87-.678-1.738-1.017-2.607-.132-.338.003-.474.33-.458zm-60.82-.156c2.229-.142 4.235 1.581 4.408 3.884.124 1.665-.505 3.024-1.874 3.911-1.591 1.031-3.278 1.1-4.91.098-1.297-.797-2.065-2.041-2.04-3.602.028-1.69.814-3.02 2.313-3.819.774-.412 1.122-.473 2.102-.472zm15.986.223c1.526-.477 2.994-.242 4.391.529.262.144.355.328.206.609-.234.438-.47.874-.7 1.314-.135.256-.324.266-.532.124-.523-.355-1.133-.427-1.719-.577a.696.696 0 0 0-.225-.02c-.186.016-.389.049-.424.274-.034.22.166.279.319.334.572.206 1.148.398 1.721.602.157.055.312.122.457.205 1.175.666 1.56 1.444 1.355 2.725-.165 1.038-1.019 1.893-2.125 2.107-.371.071-.745.155-1.13.12-1.202-.032-2.336-.321-3.36-.994-.444-.29-.455-.396-.155-.86.193-.298.388-.596.562-.907.178-.32.375-.387.707-.202.68.378 1.38.722 2.186.695.091-.003.183-.004.272-.017.14-.02.278-.068.32-.223.049-.182-.105-.244-.22-.308-.351-.195-.745-.26-1.123-.366-.604-.17-1.183-.4-1.693-.778-.794-.588-1.003-1.418-.841-2.364.177-1.038.796-1.724 1.75-2.022zm8.398-.1c2.17-.53 4.14.214 4.926 2.714.183.58.194 1.163.207 1.757.009.415-.144.602-.56.592-.682-.017-1.364-.005-2.047-.005-.682.003-1.365 0-2.047.005-.128.002-.303-.058-.365.105-.055.145.086.253.156.369.357.586 1.44.545 1.98.359.184-.063.373-.162.513-.296.324-.31.597-.277.904.027.251.248.53.469.813.678.35.259.337.522.05.811-1.003 1.015-2.22 1.428-3.606 1.318-1.895-.149-3.327-1.35-3.73-3.218-.505-2.334.604-4.677 2.806-5.215zm-16.786.014c.608-.01.676.088.678.711.004 1.299-.007 2.597.009 3.896.008.729.384 1.06 1.072 1 .411-.035.669-.246.774-.667.09-.356.062-.715.063-1.073.004-1.049 0-2.097.003-3.145.002-.648.06-.694.672-.679a30.86 30.86 0 0 0 1.774.002c.418-.013.564.171.559.588-.014 1.189-.005 2.378-.005 3.567 0 1.158-.009 2.316.005 3.473.005.423-.155.594-.566.581-.651-.019-1.304-.007-1.956-.006-.278.001-.474-.084-.485-.418-.01-.341-.178-.27-.34-.114-.78.748-1.699.83-2.68.599-.739-.175-1.848-1.032-1.88-2.598-.036-1.736-.012-3.473-.01-5.21 0-.248.05-.51.36-.484.654.055 1.303-.013 1.953-.023zm34.97-.065c.964-.13 1.94-.14 2.884.166 1.32.427 2.12 1.516 2.16 3.034.04 1.531.005 3.065.014 4.597.002.389-.178.525-.533.52a60.531 60.531 0 0 0-1.865-.001c-.365.005-.67-.038-.514-.668-.986.774-1.94.982-3 .757-.84-.178-1.698-1.005-1.897-1.892-.22-.983.2-2.122.96-2.655 1.048-.734 2.198-.691 3.373-.512.169.026.387.16.495-.057.107-.218-.084-.378-.22-.518-.536-.551-1.214-.39-1.853-.354a3.059 3.059 0 0 0-1.061.244c-.352.156-.543.008-.635-.35a45.641 45.641 0 0 0-.383-1.396c-.08-.269.071-.363.27-.45.579-.253 1.193-.383 1.805-.465zm14.235-2.02l1 .001c.315.002.473.178.475.501.002.407.006.814.002 1.22-.003.255.093.366.355.352.332-.017.667.018 1 .001.305-.015.461.1.46.423-.004.532-.002 1.064-.004 1.596 0 .326-.16.49-.478.49-.318 0-.638.016-.955-.007-.283-.021-.382.097-.38.375.009.688-.013 1.377.01 2.065.024.714.396.962 1.075.756.71-.216.732-.2.733.581 0 .391-.006.782-.001 1.173.004.345-.164.554-.464.674a4.094 4.094 0 0 1-2.677.146c-.91-.252-1.564-1.161-1.59-2.169-.012-.516-.002-1.032-.002-1.548-.003-.563-.006-1.127-.002-1.69.002-.27-.087-.386-.378-.377-.516.015-.608-.097-.612-.628-.004-.422.018-.845.005-1.266-.012-.422.184-.625.573-.581.353.039.418-.142.414-.437-.006-.391.003-.783 0-1.174-.003-.31.147-.47.44-.472.667-.007 1.335-.007 2.002-.004zM28.806 1.65c.427-.01.598.184.596.62-.01 1.58-.004 3.159-.004 4.739.002 1.532.004 3.065.001 4.598-.001.611-.052.66-.655.663-.607.003-1.214-.01-1.82.005-.391.01-.546-.164-.541-.56.01-.938-.01-1.877.01-2.815.01-.412-.103-.598-.538-.582-.788.028-1.577.013-2.366.005-.33-.003-.439.133-.438.483.003.983-.03 1.966.053 2.948.032.369-.14.556-.507.548-.682-.013-1.364-.033-2.046-.026-.39.003-.54-.165-.54-.563.008-3.144.008-6.287.002-9.431 0-.428.156-.64.589-.632.636.012 1.274.015 1.91 0 .44-.012.597.217.595.632-.005.937.01 1.874-.016 2.81-.009.319.092.415.381.412a69.95 69.95 0 0 1 2.412.003c.372.008.515-.132.508-.519-.017-.891-.009-1.783-.003-2.674.003-.553.102-.655.642-.66.592-.008 1.183.01 1.775-.004zm59.357 2.299c.695-.189.904-.026.83.697-.064.612.037 1.218.05 1.826.01.416-.123.634-.56.665-1.211.087-1.81.748-1.88 2.243a36.17 36.17 0 0 0-.012 2.3c.006.409-.13.609-.553.596a36.621 36.621 0 0 0-1.91-.001c-.383.008-.554-.145-.552-.55.007-2.378.005-4.756.001-7.134 0-.417.151-.577.583-.545.587.044 1.18.002 1.772 0 .605 0 .626.024.657.659.005.09.02.178.043.388.45-.604.917-.978 1.53-1.144zM78.7 8.875h-.023c-.12.003-.242-.003-.362.004-.512.027-.763.314-.747.847.016.476.211.652.742.658.15.001.306.004.452-.027.443-.095.863-.668.797-1.114-.083-.56-.536-.294-.836-.367-.015-.003-.03 0-.046 0zM69.81 6.45c-.605-.039-1.097.27-1.384.87-.27.566-.177 1.51.195 1.956.407.489.976.666 1.515.473.61-.22.973-.804.976-1.576.005-1.003-.5-1.67-1.301-1.723zm-34.945.016c-.772-.032-1.437.722-1.459 1.654-.022.975.598 1.67 1.506 1.687.804.015 1.48-.722 1.484-1.62.004-.908-.688-1.686-1.53-1.721zm25.457-.262c-.486.008-.785.285-.982.705-.137.293-.027.449.284.452.257.003.515.001.772.001v.004h.68l.046-.002c.382-.03.457-.156.302-.507-.203-.456-.564-.661-1.102-.653zM15.686 7.653c.127 1.374-.166 2.859-.774 4.282-1.457 3.4-6.476 5.88-10.607 1.791C2.525 11.962 1.27 9.848.17 7.627a1.503 1.503 0 0 1-.153-.764c.019-.322-.148-.733.276-.905.431-.175.783.07 1.035.385.752.947 1.476 1.916 2.21 2.878.127.166.247.339.382.501.183.223.392.526.703.307.301-.21.139-.522-.031-.768-.331-.476-.67-.943-1.005-1.415-.825-1.156-1.66-2.3-2.467-3.47-.305-.443-.37-.942.048-1.368.337-.345.775-.353 1.156-.1.255.168.453.433.64.684.853 1.134 1.689 2.282 2.541 3.416.194.26.396.727.773.472.434-.297.017-.657-.164-.935-1.032-1.585-2.09-3.151-3.122-4.737-.247-.38-.592-.766-.253-1.292.47-.73 1.255-.69 1.855.156 1.063 1.5 2.094 3.025 3.14 4.538.15.215.287.443.453.645.162.195.343.484.64.275.282-.197.093-.486-.01-.713-.118-.261-.289-.5-.436-.748C7.76 3.604 7.139 2.54 6.52 1.472c-.221-.38-.404-.834-.023-1.146.362-.297.8-.094 1.158.173 1.318.99 2.071 2.425 2.968 3.75.369.543.695 1.115 1.065 1.656.177.26.415.53.77.447.346-.08.445-.392.523-.72.126-.533.261-1.07.562-1.544.253-.393.562-.736 1.074-.648.476.084.631.497.77.907.343 1.021.308 2.074.3 3.306"
            ></path>
        </svg>