<svg xmlns="http://www.w3.org/2000/svg"
            xmlns:xlink="http://www.w3.org/1999/xlink"
            version="1.1"
            viewBox="0 0 39 28"
            width="30"
        >
            <path fill="#999999"
                d="M0 .462h5.925v16.156c0 2.563 1.14 4.076 2.068 4.724-.966.855-3.895 1.62-6.108-.226C.59 20.036 0 18.24 0 16.56V.462zm37.009 13.426v-1.7h1.817V6.246h-1.991C36.071 2.662 32.94 0 29.19 0c-4.311 0-7.82 3.565-7.82 7.946v13.877c1.228.177 2.697-.02 3.944-1.09 1.295-1.08 1.885-2.877 1.885-4.557v-.52h2.957V9.704H27.2V7.906c0-1.12.889-2.023 1.99-2.023 1.102 0 1.992.904 1.992 2.023v5.962c0 4.39 3.508 7.955 7.819 7.955v-5.932a1.994 1.994 0 0 1-1.991-2.003zM14.595 6.227v8.75a.909.909 0 0 1-.909.895.9.9 0 0 1-.899-.894V6.227H6.93V16.49c0 1.847.609 4.184 3.431 4.95 2.813.757 4.427-.825 4.427-.825-.155 1.041-1.102 1.808-2.658 1.965-1.18.117-2.677-.285-3.421-.6v5.442c1.904.58 3.914.766 5.905.363 3.586-.697 5.848-3.742 5.848-7.808V6.187h-5.867v.04z"
            ></path>
        </svg>